<mxfile host="app.diagrams.net" modified="2023-09-04T14:03:57.651Z" agent="Mozilla/5.0 (Windows NT 10.0; Win64; x64) AppleWebKit/537.36 (KHTML, like Gecko) Chrome/116.0.0.0 Safari/537.36" etag="xt8-IXAngMcmtyfXAFJa" version="21.6.9" type="device">
  <diagram name="PÃ¡gina-1" id="SzFlKtUkxzh-hX3-HLMw">
    <mxGraphModel dx="270" dy="1949" grid="1" gridSize="10" guides="1" tooltips="1" connect="1" arrows="1" fold="1" page="1" pageScale="1" pageWidth="827" pageHeight="1169" math="0" shadow="0">
      <root>
        <mxCell id="0" />
        <mxCell id="1" parent="0" />
        <mxCell id="-U5MCRBDD9T5CGHTKEmp-2" value="Servicos" style="whiteSpace=wrap;html=1;align=center;fillColor=#dae8fc;strokeColor=#6c8ebf;" vertex="1" parent="1">
          <mxGeometry x="280" y="398" width="100" height="40" as="geometry" />
        </mxCell>
        <mxCell id="-U5MCRBDD9T5CGHTKEmp-29" style="rounded=0;orthogonalLoop=1;jettySize=auto;html=1;exitX=1;exitY=0;exitDx=0;exitDy=0;entryX=0;entryY=1;entryDx=0;entryDy=0;endArrow=none;endFill=0;" edge="1" parent="1" source="-U5MCRBDD9T5CGHTKEmp-3" target="-U5MCRBDD9T5CGHTKEmp-2">
          <mxGeometry relative="1" as="geometry" />
        </mxCell>
        <mxCell id="-U5MCRBDD9T5CGHTKEmp-3" value="id&lt;br&gt;" style="ellipse;whiteSpace=wrap;html=1;align=center;fontStyle=4;fillColor=#fff2cc;strokeColor=#d6b656;" vertex="1" parent="1">
          <mxGeometry x="130" y="440" width="100" height="40" as="geometry" />
        </mxCell>
        <mxCell id="-U5MCRBDD9T5CGHTKEmp-25" style="rounded=0;orthogonalLoop=1;jettySize=auto;html=1;exitX=0;exitY=0.5;exitDx=0;exitDy=0;endArrow=none;endFill=0;" edge="1" parent="1" source="-U5MCRBDD9T5CGHTKEmp-4" target="-U5MCRBDD9T5CGHTKEmp-24">
          <mxGeometry relative="1" as="geometry" />
        </mxCell>
        <mxCell id="-U5MCRBDD9T5CGHTKEmp-4" value="Cliente" style="whiteSpace=wrap;html=1;align=center;fillColor=#dae8fc;strokeColor=#6c8ebf;" vertex="1" parent="1">
          <mxGeometry x="780" y="398" width="100" height="40" as="geometry" />
        </mxCell>
        <mxCell id="-U5MCRBDD9T5CGHTKEmp-15" style="rounded=0;orthogonalLoop=1;jettySize=auto;html=1;exitX=1;exitY=0;exitDx=0;exitDy=0;entryX=0;entryY=1;entryDx=0;entryDy=0;endArrow=none;endFill=0;" edge="1" parent="1" target="-U5MCRBDD9T5CGHTKEmp-4">
          <mxGeometry relative="1" as="geometry">
            <mxPoint x="735.3553390593274" y="465.85786437626894" as="sourcePoint" />
          </mxGeometry>
        </mxCell>
        <mxCell id="-U5MCRBDD9T5CGHTKEmp-5" value="id" style="ellipse;whiteSpace=wrap;html=1;align=center;fontStyle=4;fillColor=#fff2cc;strokeColor=#d6b656;" vertex="1" parent="1">
          <mxGeometry x="650" y="460" width="100" height="40" as="geometry" />
        </mxCell>
        <mxCell id="-U5MCRBDD9T5CGHTKEmp-16" style="rounded=0;orthogonalLoop=1;jettySize=auto;html=1;exitX=1;exitY=0;exitDx=0;exitDy=0;entryX=0.25;entryY=1;entryDx=0;entryDy=0;endArrow=none;endFill=0;" edge="1" parent="1" source="-U5MCRBDD9T5CGHTKEmp-6" target="-U5MCRBDD9T5CGHTKEmp-4">
          <mxGeometry relative="1" as="geometry" />
        </mxCell>
        <mxCell id="-U5MCRBDD9T5CGHTKEmp-6" value="logradouro" style="ellipse;shape=doubleEllipse;margin=3;whiteSpace=wrap;html=1;align=center;fillColor=#fff2cc;strokeColor=#d6b656;" vertex="1" parent="1">
          <mxGeometry x="700" y="510" width="100" height="40" as="geometry" />
        </mxCell>
        <mxCell id="-U5MCRBDD9T5CGHTKEmp-21" style="rounded=0;orthogonalLoop=1;jettySize=auto;html=1;exitX=1;exitY=0;exitDx=0;exitDy=0;entryX=0;entryY=1;entryDx=0;entryDy=0;endArrow=none;endFill=0;" edge="1" parent="1" source="-U5MCRBDD9T5CGHTKEmp-8" target="-U5MCRBDD9T5CGHTKEmp-12">
          <mxGeometry relative="1" as="geometry" />
        </mxCell>
        <mxCell id="-U5MCRBDD9T5CGHTKEmp-8" value="Cep" style="ellipse;whiteSpace=wrap;html=1;align=center;fillColor=#fff2cc;strokeColor=#d6b656;" vertex="1" parent="1">
          <mxGeometry x="680" y="620" width="100" height="40" as="geometry" />
        </mxCell>
        <mxCell id="-U5MCRBDD9T5CGHTKEmp-22" style="edgeStyle=orthogonalEdgeStyle;rounded=0;orthogonalLoop=1;jettySize=auto;html=1;exitX=0.5;exitY=0;exitDx=0;exitDy=0;entryX=0.5;entryY=1;entryDx=0;entryDy=0;endArrow=none;endFill=0;" edge="1" parent="1" source="-U5MCRBDD9T5CGHTKEmp-9" target="-U5MCRBDD9T5CGHTKEmp-12">
          <mxGeometry relative="1" as="geometry" />
        </mxCell>
        <mxCell id="-U5MCRBDD9T5CGHTKEmp-9" value="numero" style="ellipse;whiteSpace=wrap;html=1;align=center;fillColor=#fff2cc;strokeColor=#d6b656;" vertex="1" parent="1">
          <mxGeometry x="780" y="650" width="100" height="40" as="geometry" />
        </mxCell>
        <mxCell id="-U5MCRBDD9T5CGHTKEmp-23" style="rounded=0;orthogonalLoop=1;jettySize=auto;html=1;exitX=0;exitY=0;exitDx=0;exitDy=0;entryX=1;entryY=1;entryDx=0;entryDy=0;endArrow=none;endFill=0;" edge="1" parent="1" source="-U5MCRBDD9T5CGHTKEmp-10" target="-U5MCRBDD9T5CGHTKEmp-12">
          <mxGeometry relative="1" as="geometry" />
        </mxCell>
        <mxCell id="-U5MCRBDD9T5CGHTKEmp-10" value="complemento" style="ellipse;whiteSpace=wrap;html=1;align=center;fillColor=#fff2cc;strokeColor=#d6b656;" vertex="1" parent="1">
          <mxGeometry x="880" y="620" width="100" height="40" as="geometry" />
        </mxCell>
        <mxCell id="-U5MCRBDD9T5CGHTKEmp-17" style="edgeStyle=orthogonalEdgeStyle;rounded=0;orthogonalLoop=1;jettySize=auto;html=1;exitX=0.5;exitY=0;exitDx=0;exitDy=0;entryX=0.5;entryY=1;entryDx=0;entryDy=0;endArrow=none;endFill=0;" edge="1" parent="1" source="-U5MCRBDD9T5CGHTKEmp-12" target="-U5MCRBDD9T5CGHTKEmp-4">
          <mxGeometry relative="1" as="geometry" />
        </mxCell>
        <mxCell id="-U5MCRBDD9T5CGHTKEmp-12" value="cpf" style="ellipse;whiteSpace=wrap;html=1;align=center;fillColor=#fff2cc;strokeColor=#d6b656;" vertex="1" parent="1">
          <mxGeometry x="780" y="550" width="100" height="40" as="geometry" />
        </mxCell>
        <mxCell id="-U5MCRBDD9T5CGHTKEmp-18" style="rounded=0;orthogonalLoop=1;jettySize=auto;html=1;exitX=0;exitY=0;exitDx=0;exitDy=0;entryX=0.75;entryY=1;entryDx=0;entryDy=0;endArrow=none;endFill=0;" edge="1" parent="1" source="-U5MCRBDD9T5CGHTKEmp-13" target="-U5MCRBDD9T5CGHTKEmp-4">
          <mxGeometry relative="1" as="geometry" />
        </mxCell>
        <mxCell id="-U5MCRBDD9T5CGHTKEmp-13" value="nome" style="ellipse;whiteSpace=wrap;html=1;align=center;fillColor=#fff2cc;strokeColor=#d6b656;" vertex="1" parent="1">
          <mxGeometry x="880" y="510" width="100" height="40" as="geometry" />
        </mxCell>
        <mxCell id="-U5MCRBDD9T5CGHTKEmp-20" style="rounded=0;orthogonalLoop=1;jettySize=auto;html=1;exitX=0;exitY=0;exitDx=0;exitDy=0;entryX=1;entryY=1;entryDx=0;entryDy=0;endArrow=none;endFill=0;" edge="1" parent="1" source="-U5MCRBDD9T5CGHTKEmp-14" target="-U5MCRBDD9T5CGHTKEmp-4">
          <mxGeometry relative="1" as="geometry" />
        </mxCell>
        <mxCell id="-U5MCRBDD9T5CGHTKEmp-14" value="telefone" style="ellipse;whiteSpace=wrap;html=1;align=center;fillColor=#fff2cc;strokeColor=#d6b656;" vertex="1" parent="1">
          <mxGeometry x="910" y="460" width="100" height="40" as="geometry" />
        </mxCell>
        <mxCell id="-U5MCRBDD9T5CGHTKEmp-27" style="rounded=0;orthogonalLoop=1;jettySize=auto;html=1;exitX=0;exitY=0.5;exitDx=0;exitDy=0;endArrow=none;endFill=0;" edge="1" parent="1" source="-U5MCRBDD9T5CGHTKEmp-24" target="-U5MCRBDD9T5CGHTKEmp-2">
          <mxGeometry relative="1" as="geometry" />
        </mxCell>
        <mxCell id="-U5MCRBDD9T5CGHTKEmp-24" value="tem" style="shape=rhombus;perimeter=rhombusPerimeter;whiteSpace=wrap;html=1;align=center;fillColor=#f8cecc;strokeColor=#b85450;" vertex="1" parent="1">
          <mxGeometry x="510" y="388" width="120" height="60" as="geometry" />
        </mxCell>
        <mxCell id="-U5MCRBDD9T5CGHTKEmp-26" value="(1,1)" style="text;html=1;align=center;verticalAlign=middle;resizable=0;points=[];autosize=1;strokeColor=none;fillColor=none;" vertex="1" parent="1">
          <mxGeometry x="737" y="389" width="50" height="30" as="geometry" />
        </mxCell>
        <mxCell id="-U5MCRBDD9T5CGHTKEmp-28" value="(1,n)" style="text;html=1;align=center;verticalAlign=middle;resizable=0;points=[];autosize=1;strokeColor=none;fillColor=none;" vertex="1" parent="1">
          <mxGeometry x="395" y="388" width="50" height="30" as="geometry" />
        </mxCell>
        <mxCell id="-U5MCRBDD9T5CGHTKEmp-47" style="rounded=0;orthogonalLoop=1;jettySize=auto;html=1;exitX=1;exitY=0;exitDx=0;exitDy=0;entryX=0.17;entryY=1.05;entryDx=0;entryDy=0;entryPerimeter=0;endArrow=none;endFill=0;" edge="1" parent="1" source="-U5MCRBDD9T5CGHTKEmp-32" target="-U5MCRBDD9T5CGHTKEmp-2">
          <mxGeometry relative="1" as="geometry" />
        </mxCell>
        <mxCell id="-U5MCRBDD9T5CGHTKEmp-32" value="tipo" style="ellipse;whiteSpace=wrap;html=1;align=center;fillColor=#fff2cc;strokeColor=#d6b656;" vertex="1" parent="1">
          <mxGeometry x="170" y="490" width="100" height="40" as="geometry" />
        </mxCell>
        <mxCell id="-U5MCRBDD9T5CGHTKEmp-46" style="rounded=0;orthogonalLoop=1;jettySize=auto;html=1;exitX=1;exitY=0;exitDx=0;exitDy=0;entryX=0.33;entryY=1.025;entryDx=0;entryDy=0;entryPerimeter=0;endArrow=none;endFill=0;" edge="1" parent="1" source="-U5MCRBDD9T5CGHTKEmp-33" target="-U5MCRBDD9T5CGHTKEmp-2">
          <mxGeometry relative="1" as="geometry" />
        </mxCell>
        <mxCell id="-U5MCRBDD9T5CGHTKEmp-33" value="data_Entrada" style="ellipse;whiteSpace=wrap;html=1;align=center;fillColor=#fff2cc;strokeColor=#d6b656;" vertex="1" parent="1">
          <mxGeometry x="210" y="530" width="100" height="40" as="geometry" />
        </mxCell>
        <mxCell id="-U5MCRBDD9T5CGHTKEmp-45" style="rounded=0;orthogonalLoop=1;jettySize=auto;html=1;exitX=0.5;exitY=0;exitDx=0;exitDy=0;entryX=0.5;entryY=1;entryDx=0;entryDy=0;endArrow=none;endFill=0;" edge="1" parent="1" source="-U5MCRBDD9T5CGHTKEmp-34" target="-U5MCRBDD9T5CGHTKEmp-2">
          <mxGeometry relative="1" as="geometry" />
        </mxCell>
        <mxCell id="-U5MCRBDD9T5CGHTKEmp-34" value="data_Conclusao" style="ellipse;whiteSpace=wrap;html=1;align=center;fillColor=#fff2cc;strokeColor=#d6b656;" vertex="1" parent="1">
          <mxGeometry x="280" y="570" width="100" height="40" as="geometry" />
        </mxCell>
        <mxCell id="-U5MCRBDD9T5CGHTKEmp-39" style="rounded=0;orthogonalLoop=1;jettySize=auto;html=1;exitX=0;exitY=0;exitDx=0;exitDy=0;entryX=0.75;entryY=1;entryDx=0;entryDy=0;endArrow=none;endFill=0;" edge="1" parent="1" source="-U5MCRBDD9T5CGHTKEmp-35" target="-U5MCRBDD9T5CGHTKEmp-2">
          <mxGeometry relative="1" as="geometry" />
        </mxCell>
        <mxCell id="-U5MCRBDD9T5CGHTKEmp-35" value="data_retirada" style="ellipse;whiteSpace=wrap;html=1;align=center;fillColor=#fff2cc;strokeColor=#d6b656;" vertex="1" parent="1">
          <mxGeometry x="350" y="510" width="100" height="40" as="geometry" />
        </mxCell>
        <mxCell id="-U5MCRBDD9T5CGHTKEmp-38" style="rounded=0;orthogonalLoop=1;jettySize=auto;html=1;exitX=0;exitY=0;exitDx=0;exitDy=0;entryX=1;entryY=1;entryDx=0;entryDy=0;endArrow=none;endFill=0;" edge="1" parent="1" source="-U5MCRBDD9T5CGHTKEmp-36" target="-U5MCRBDD9T5CGHTKEmp-2">
          <mxGeometry relative="1" as="geometry" />
        </mxCell>
        <mxCell id="-U5MCRBDD9T5CGHTKEmp-36" value="preco" style="ellipse;whiteSpace=wrap;html=1;align=center;fillColor=#fff2cc;strokeColor=#d6b656;" vertex="1" parent="1">
          <mxGeometry x="395" y="460" width="100" height="40" as="geometry" />
        </mxCell>
        <mxCell id="-U5MCRBDD9T5CGHTKEmp-58" style="rounded=0;orthogonalLoop=1;jettySize=auto;html=1;exitX=0;exitY=0;exitDx=0;exitDy=0;entryX=1;entryY=1;entryDx=0;entryDy=0;endArrow=none;endFill=0;" edge="1" parent="1" source="-U5MCRBDD9T5CGHTKEmp-48" target="-U5MCRBDD9T5CGHTKEmp-50">
          <mxGeometry relative="1" as="geometry" />
        </mxCell>
        <mxCell id="-U5MCRBDD9T5CGHTKEmp-64" style="rounded=0;orthogonalLoop=1;jettySize=auto;html=1;exitX=1;exitY=0;exitDx=0;exitDy=0;entryX=0;entryY=1;entryDx=0;entryDy=0;endArrow=none;endFill=0;" edge="1" parent="1" source="-U5MCRBDD9T5CGHTKEmp-48" target="-U5MCRBDD9T5CGHTKEmp-63">
          <mxGeometry relative="1" as="geometry" />
        </mxCell>
        <mxCell id="-U5MCRBDD9T5CGHTKEmp-48" value="Veiculo" style="whiteSpace=wrap;html=1;align=center;fillColor=#dae8fc;strokeColor=#6c8ebf;" vertex="1" parent="1">
          <mxGeometry x="280" y="110" width="100" height="40" as="geometry" />
        </mxCell>
        <mxCell id="-U5MCRBDD9T5CGHTKEmp-50" value="id&lt;br&gt;" style="ellipse;whiteSpace=wrap;html=1;align=center;fontStyle=4;fillColor=#fff2cc;strokeColor=#d6b656;" vertex="1" parent="1">
          <mxGeometry x="160" y="50" width="100" height="40" as="geometry" />
        </mxCell>
        <mxCell id="-U5MCRBDD9T5CGHTKEmp-59" style="rounded=0;orthogonalLoop=1;jettySize=auto;html=1;exitX=1;exitY=1;exitDx=0;exitDy=0;entryX=0.19;entryY=0;entryDx=0;entryDy=0;entryPerimeter=0;endArrow=none;endFill=0;" edge="1" parent="1" source="-U5MCRBDD9T5CGHTKEmp-52" target="-U5MCRBDD9T5CGHTKEmp-48">
          <mxGeometry relative="1" as="geometry" />
        </mxCell>
        <mxCell id="-U5MCRBDD9T5CGHTKEmp-52" value="placa" style="ellipse;whiteSpace=wrap;html=1;align=center;fontStyle=4;fillColor=#fff2cc;strokeColor=#d6b656;" vertex="1" parent="1">
          <mxGeometry x="200" width="100" height="40" as="geometry" />
        </mxCell>
        <mxCell id="-U5MCRBDD9T5CGHTKEmp-60" style="rounded=0;orthogonalLoop=1;jettySize=auto;html=1;exitX=0.5;exitY=1;exitDx=0;exitDy=0;endArrow=none;endFill=0;" edge="1" parent="1" source="-U5MCRBDD9T5CGHTKEmp-53" target="-U5MCRBDD9T5CGHTKEmp-48">
          <mxGeometry relative="1" as="geometry" />
        </mxCell>
        <mxCell id="-U5MCRBDD9T5CGHTKEmp-53" value="modelo" style="ellipse;whiteSpace=wrap;html=1;align=center;fillColor=#fff2cc;strokeColor=#d6b656;" vertex="1" parent="1">
          <mxGeometry x="280" y="-60" width="100" height="40" as="geometry" />
        </mxCell>
        <mxCell id="-U5MCRBDD9T5CGHTKEmp-61" style="rounded=0;orthogonalLoop=1;jettySize=auto;html=1;exitX=0;exitY=1;exitDx=0;exitDy=0;entryX=0.75;entryY=0;entryDx=0;entryDy=0;endArrow=none;endFill=0;" edge="1" parent="1" source="-U5MCRBDD9T5CGHTKEmp-54" target="-U5MCRBDD9T5CGHTKEmp-48">
          <mxGeometry relative="1" as="geometry" />
        </mxCell>
        <mxCell id="-U5MCRBDD9T5CGHTKEmp-54" value="cor" style="ellipse;whiteSpace=wrap;html=1;align=center;fillColor=#fff2cc;strokeColor=#d6b656;" vertex="1" parent="1">
          <mxGeometry x="360" width="100" height="40" as="geometry" />
        </mxCell>
        <mxCell id="-U5MCRBDD9T5CGHTKEmp-56" style="rounded=0;orthogonalLoop=1;jettySize=auto;html=1;exitX=0.5;exitY=1;exitDx=0;exitDy=0;entryX=0.5;entryY=0;entryDx=0;entryDy=0;endArrow=none;endFill=0;" edge="1" parent="1" source="-U5MCRBDD9T5CGHTKEmp-55" target="-U5MCRBDD9T5CGHTKEmp-2">
          <mxGeometry relative="1" as="geometry" />
        </mxCell>
        <mxCell id="-U5MCRBDD9T5CGHTKEmp-57" style="rounded=0;orthogonalLoop=1;jettySize=auto;html=1;exitX=0.5;exitY=0;exitDx=0;exitDy=0;entryX=0.5;entryY=1;entryDx=0;entryDy=0;endArrow=none;endFill=0;" edge="1" parent="1" source="-U5MCRBDD9T5CGHTKEmp-55" target="-U5MCRBDD9T5CGHTKEmp-48">
          <mxGeometry relative="1" as="geometry" />
        </mxCell>
        <mxCell id="-U5MCRBDD9T5CGHTKEmp-55" value="tem" style="shape=rhombus;perimeter=rhombusPerimeter;whiteSpace=wrap;html=1;align=center;fillColor=#f8cecc;strokeColor=#b85450;" vertex="1" parent="1">
          <mxGeometry x="270" y="230" width="120" height="60" as="geometry" />
        </mxCell>
        <mxCell id="-U5MCRBDD9T5CGHTKEmp-63" value="marca" style="ellipse;whiteSpace=wrap;html=1;align=center;fillColor=#fff2cc;strokeColor=#d6b656;" vertex="1" parent="1">
          <mxGeometry x="380" y="50" width="100" height="40" as="geometry" />
        </mxCell>
        <mxCell id="-U5MCRBDD9T5CGHTKEmp-65" value="(1,1)" style="text;html=1;align=center;verticalAlign=middle;resizable=0;points=[];autosize=1;strokeColor=none;fillColor=none;" vertex="1" parent="1">
          <mxGeometry x="290" y="150" width="50" height="30" as="geometry" />
        </mxCell>
        <mxCell id="-U5MCRBDD9T5CGHTKEmp-66" value="1,n" style="text;html=1;align=center;verticalAlign=middle;resizable=0;points=[];autosize=1;strokeColor=none;fillColor=none;" vertex="1" parent="1">
          <mxGeometry x="290" y="368" width="40" height="30" as="geometry" />
        </mxCell>
      </root>
    </mxGraphModel>
  </diagram>
</mxfile>
